<svg xmlns="http://www.w3.org/2000/svg" fill-rule="evenodd" stroke-linejoin="round" stroke-miterlimit="2" clip-rule="evenodd" viewBox="0 0 64 64"><path d="M14.36,41.461l-7.22,12.153c-0.203,0.341 -0.184,0.77 0.047,1.093c0.232,0.323 0.632,0.478 1.021,0.396l5.699,-1.211c0,0 1.802,5.542 1.802,5.542c0.122,0.374 0.452,0.642 0.843,0.684c0.391,0.043 0.771,-0.147 0.97,-0.487l6.52,-11.081c2.474,0.937 5.156,1.45 7.958,1.45c2.531,0 4.965,-0.419 7.236,-1.191l6.238,10.815c0.197,0.342 0.577,0.536 0.97,0.495c0.393,-0.041 0.725,-0.31 0.847,-0.685l1.802,-5.542c-0,0 5.699,1.211 5.699,1.211c0.381,0.08 0.774,-0.067 1.008,-0.378c0.233,-0.312 0.265,-0.73 0.081,-1.073l-6.417,-11.971c3.148,-3.872 5.036,-8.808 5.036,-14.181c-0,-12.418 -10.082,-22.5 -22.5,-22.5c-12.418,0 -22.5,10.082 -22.5,22.5c0,5.273 1.818,10.124 4.86,13.961Zm1.383,1.588l-5.717,9.623l4.346,-0.923c0.501,-0.106 1.001,0.182 1.159,0.669c0,0 1.394,4.285 1.394,4.285l5.266,-8.951c-2.424,-1.177 -4.605,-2.777 -6.448,-4.703Zm32.302,0.218c-1.973,2.008 -4.319,3.647 -6.926,4.805l4.964,8.607l1.386,-4.261c0.158,-0.487 0.658,-0.775 1.159,-0.669c-0,0 4.473,0.95 4.473,0.95l-5.056,-9.432Zm-16.045,-36.267c11.314,0 20.5,9.186 20.5,20.5c0,11.314 -9.186,20.5 -20.5,20.5c-11.314,0 -20.5,-9.186 -20.5,-20.5c0,-11.314 9.186,-20.5 20.5,-20.5Zm0,1.272c-10.612,-0 -19.228,8.616 -19.228,19.228c-0,10.612 8.616,19.228 19.228,19.228c10.612,0 19.228,-8.616 19.228,-19.228c0,-10.612 -8.616,-19.228 -19.228,-19.228Zm0,2c9.509,-0 17.228,7.719 17.228,17.228c0,9.509 -7.719,17.228 -17.228,17.228c-9.509,0 -17.228,-7.719 -17.228,-17.228c-0,-9.509 7.719,-17.228 17.228,-17.228Zm-9.195,15.679l6.815,7.838c0.357,0.411 0.976,0.461 1.395,0.113l13.438,-11.19c0.424,-0.353 0.481,-0.984 0.128,-1.408c-0.353,-0.424 -0.984,-0.482 -1.408,-0.129l-12.686,10.563c0,0 -6.172,-7.1 -6.172,-7.1c-0.363,-0.416 -0.995,-0.46 -1.411,-0.098c-0.417,0.362 -0.461,0.994 -0.099,1.411Z"/></svg>